<svg xmlns="http://www.w3.org/2000/svg" viewBox="0 0 240 240" role="img" aria-label="رئیس پرستاری">
  <defs>
    <linearGradient id="bossBg" x1="30" y1="16" x2="210" y2="230" gradientUnits="userSpaceOnUse">
      <stop stop-color="#dff8ef"/>
      <stop offset="1" stop-color="#9ee8d0"/>
    </linearGradient>
    <linearGradient id="bossCoat" x1="70" y1="143" x2="174" y2="241" gradientUnits="userSpaceOnUse">
      <stop stop-color="#ffffff"/>
      <stop offset="1" stop-color="#eef5fb"/>
    </linearGradient>
    <filter id="softShadow" x="-20%" y="-20%" width="140%" height="150%">
      <feDropShadow dx="0" dy="7" stdDeviation="5" flood-color="#0f766e" flood-opacity="0.18"/>
    </filter>
  </defs>
  <rect width="240" height="240" fill="url(#bossBg)"/>
  <circle cx="188" cy="55" r="28" fill="#ffffff" opacity="0.42"/>
  <circle cx="45" cy="172" r="42" fill="#ffffff" opacity="0.28"/>

  <g filter="url(#softShadow)">
    <path d="M52 240c5-55 34-88 68-88s63 33 68 88H52Z" fill="url(#bossCoat)"/>
    <path d="M94 154h52l-26 38-26-38Z" fill="#d9f3ea"/>
    <path d="M111 174h18l7 66h-32l7-66Z" fill="#0f9d7a"/>
    <path d="M82 166 120 240 158 166c19 13 28 37 32 74H50c4-37 13-61 32-74Z" fill="#ffffff"/>
    <path d="M101 164 120 197 139 164" fill="none" stroke="#d8e3ec" stroke-width="5" stroke-linecap="round" stroke-linejoin="round"/>

    <path d="M74 103c0-35 18-64 46-64s46 29 46 64c0 34-21 61-46 61s-46-27-46-61Z" fill="#f4b184"/>
    <path d="M69 93c3-39 24-62 51-62s48 23 51 62c-15-14-31-21-51-21s-36 7-51 21Z" fill="#dfe5e9"/>
    <path d="M75 80c6-32 25-50 45-50s39 18 45 50c-14-9-29-13-45-13s-31 4-45 13Z" fill="#f5f7f8"/>
    <path d="M96 53h48l-5 24H101l-5-24Z" fill="#ffffff"/>
    <path d="M120 56v15M113 63h14" stroke="#0f9d7a" stroke-width="6" stroke-linecap="round"/>

    <path d="M95 107c6-4 13-4 19 0M126 107c6-4 13-4 19 0" stroke="#475569" stroke-width="4" stroke-linecap="round"/>
    <path d="M104 130c8 8 24 8 32 0" stroke="#ffffff" stroke-width="5" stroke-linecap="round"/>
    <path d="M101 121c6-6 13-7 19-1 6-6 13-5 19 1" fill="none" stroke="#ffffff" stroke-width="8" stroke-linecap="round"/>

    <rect x="150" y="179" width="31" height="25" rx="4" fill="#f8fafc" stroke="#d7e3ec" stroke-width="2"/>
    <rect x="158" y="174" width="14" height="8" rx="2" fill="#0f172a"/>
    <path d="M158 192h16" stroke="#0f9d7a" stroke-width="3" stroke-linecap="round"/>
  </g>
</svg>
